<svg width="268.5799377441406px" height="120.8px" xmlns="http://www.w3.org/2000/svg" viewBox="115.71003112792971 14.600000000000001 268.5799377441406 120.8" style="background: rgba(0, 0, 0, 0);" preserveAspectRatio="xMidYMid"><defs><filter id="editing-extrusion" x="-100%" y="-100%" width="300%" height="300%"><feFlood result="color1" flood-color="#444"></feFlood><feConvolveMatrix order="8,8" divisor="1" kernelMatrix="1 0 0 0 0 0 0 0 0 1 0 0 0 0 0 0 0 0 1 0 0 0 0 0 0 0 0 1 0 0 0 0 0 0 0 0 1 0 0 0 0 0 0 0 0 1 0 0 0 0 0 0 0 0 1 0 0 0 0 0 0 0 0 1" in="SourceAlpha" result="extrude"></feConvolveMatrix><feComposite in="color1" in2="extrude" result="comp-extrude" operator="in"></feComposite><feOffset dx="4" dy="4" in="comp-extrude" result="offset-extrude"></feOffset><feMerge><feMergeNode in="offset-extrude"></feMergeNode><feMergeNode in="SourceGraphic"></feMergeNode></feMerge></filter></defs><g filter="url(#editing-extrusion)"><g transform="translate(159.659139752388, 99)"><path d="M6.53 0L-0.83 0L10.75-42.24L24.13-42.24L27.07-18.11L38.98-42.24L50.18-42.24L51.33-10.62L51.33-10.62Q51.58-4.35 54.66-2.43L54.66-2.43L54.66-2.43Q53.95-1.15 51.90 0.06L51.90 0.06L51.90 0.06Q49.86 1.28 47.14 1.28L47.14 1.28L47.14 1.28Q44.42 1.28 42.82 0.51L42.82 0.51L42.82 0.51Q41.22-0.26 40.32-1.54L40.32-1.54L40.32-1.54Q38.72-3.84 38.72-8.26L38.72-8.26L38.72-28.03L26.11 0L18.18 0L13.70-28.74L6.53 0ZM60.19-1.92L60.19-1.92L60.19-1.92Q58.69-3.58 58.02-6.21L58.02-6.21L58.02-6.21Q57.34-8.83 57.34-13.12L57.34-13.12L57.34-13.12Q57.34-17.41 58.82-21.31L58.82-21.31L58.82-21.31Q60.29-25.22 62.98-28.03L62.98-28.03L62.98-28.03Q68.48-33.92 77.57-33.92L77.57-33.92L77.57-33.92Q80.83-33.92 83.20-32.83L83.20-32.83L94.14-33.92L89.41-8.96L89.41-8.96Q89.22-8.19 89.22-6.78L89.22-6.78L89.22-6.78Q89.22-5.38 90.08-4.48L90.08-4.48L90.08-4.48Q90.94-3.58 92.22-3.46L92.22-3.46L92.22-3.46Q91.58-1.28 89.25 0L89.25 0L89.25 0Q86.91 1.28 84.29 1.28L84.29 1.28L84.29 1.28Q81.66 1.28 79.90 0.29L79.90 0.29L79.90 0.29Q78.14-0.70 77.63-2.37L77.63-2.37L77.63-2.37Q76.61-0.77 74.43 0.26L74.43 0.26L74.43 0.26Q72.26 1.28 69.34 1.28L69.34 1.28L69.34 1.28Q66.43 1.28 64.06 0.51L64.06 0.51L64.06 0.51Q61.70-0.26 60.19-1.92ZM73.70-27.90L73.70-27.90L73.70-27.90Q72.96-26.75 72.32-24.80L72.32-24.80L72.32-24.80Q71.68-22.85 70.62-17.63L70.62-17.63L70.62-17.63Q69.57-12.42 69.57-8.70L69.57-8.70L69.57-8.70Q69.57-4.99 70.14-3.90L70.14-3.90L70.14-3.90Q70.72-2.82 71.74-2.82L71.74-2.82L71.74-2.82Q73.79-2.82 75.30-4.77L75.30-4.77L75.30-4.77Q76.80-6.72 77.38-10.18L77.38-10.18L80.77-28.93L80.77-28.93Q79.42-30.08 77.86-30.08L77.86-30.08L77.86-30.08Q76.29-30.08 75.36-29.57L75.36-29.57L75.36-29.57Q74.43-29.06 73.70-27.90ZM124.67 1.28L124.67 1.28L124.67 1.28Q116.93 1.28 116.93-4.74L116.93-4.74L116.93-4.74Q116.99-6.40 117.50-9.22L117.50-9.22L118.66-15.10L118.66-15.10Q120.38-23.42 120.38-25.28L120.38-25.28L120.38-25.28Q120.38-28.99 118.21-28.99L118.21-28.99L118.21-28.99Q114.56-28.99 112.64-19.46L112.64-19.46L108.86 0L96 1.28L102.66-32.70L113.15-33.92L112.13-27.65L112.13-27.65Q115.14-33.92 124.35-33.92L124.35-33.92L124.35-33.92Q128.83-33.92 130.72-32.03L130.72-32.03L130.72-32.03Q132.61-30.14 132.61-25.92L132.61-25.92L132.61-25.92Q132.61-21.95 130.56-12.67L130.56-12.67L130.56-12.67Q129.60-8.51 129.60-6.94L129.60-6.94L129.60-6.94Q129.60-5.38 130.46-4.48L130.46-4.48L130.46-4.48Q131.33-3.58 132.61-3.46L132.61-3.46L132.61-3.46Q131.97-1.28 129.76 0L129.76 0L129.76 0Q127.55 1.28 124.67 1.28ZM147.01-29.50L140.22-29.50L140.22-29.50Q142.59-37.70 142.72-46.34L142.72-46.34L144.58-46.59L144.58-46.59Q145.54-46.72 146.24-46.72L146.24-46.72L146.24-46.72Q149.06-46.72 150.59-45.34L150.59-45.34L150.59-45.34Q152.13-43.97 152.13-41.54L152.13-41.54L152.13-41.54Q152.13-38.98 150.98-36.16L150.98-36.16L150.98-36.16Q148.93-31.17 147.01-29.50L147.01-29.50ZM170.50-22.46L170.50-22.46L170.50-22.46Q171.39-24.83 171.39-26.88L171.39-26.88L171.39-26.88Q171.39-30.66 168.32-30.66L168.32-30.66L168.32-30.66Q166.72-30.66 165.41-29.22L165.41-29.22L165.41-29.22Q164.10-27.78 164.10-25.98L164.10-25.98L164.10-25.98Q164.10-24.70 165.12-23.68L165.12-23.68L165.12-23.68Q166.59-22.27 170.37-19.97L170.37-19.97L170.37-19.97Q174.14-17.66 175.58-15.78L175.58-15.78L175.58-15.78Q177.02-13.89 177.02-11.30L177.02-11.30L177.02-11.30Q177.02-8.70 175.78-6.34L175.78-6.34L175.78-6.34Q174.53-3.97 172.29-2.30L172.29-2.30L172.29-2.30Q167.49 1.28 159.81 1.28L159.81 1.28L159.81 1.28Q155.65 1.28 152.45-0.90L152.45-0.90L152.45-0.90Q149.25-3.01 149.25-5.50L149.25-5.50L149.25-5.50Q149.25-8 151.07-9.47L151.07-9.47L151.07-9.47Q152.90-10.94 155.58-10.94L155.58-10.94L155.58-10.94Q158.27-10.94 159.94-9.92L159.94-9.92L159.94-9.92Q159.10-7.81 159.10-6.40L159.10-6.40L159.10-6.40Q159.10-2.18 162.69-2.18L162.69-2.18L162.69-2.18Q164.22-2.18 165.25-3.14L165.25-3.14L165.25-3.14Q166.27-4.10 166.27-5.76L166.27-5.76L166.27-5.76Q166.27-9.02 160.77-12.48L160.77-12.48L160.77-12.48Q156.29-15.42 155.26-16.58L155.26-16.58L155.26-16.58Q153.54-18.62 153.54-21.18L153.54-21.18L153.54-21.18Q153.54-23.74 154.75-26.18L154.75-26.18L154.75-26.18Q155.97-28.61 158.21-30.34L158.21-30.34L158.21-30.34Q162.88-33.92 171.01-33.92L171.01-33.92L171.01-33.92Q175.17-33.92 177.63-32.26L177.63-32.26L177.63-32.26Q180.10-30.59 180.10-27.78L180.10-27.78L180.10-27.78Q180.10-24.96 178.40-23.36L178.40-23.36L178.40-23.36Q176.70-21.76 173.63-21.76L173.63-21.76L173.63-21.76Q171.52-21.76 170.50-22.46Z" fill="#ccc"></path></g></g><style>text {
  font-size: 64px;
  font-family: Arial Black;
  dominant-baseline: central;
  text-anchor: middle;
}</style></svg>